<svg width="57" height="29" fill="none" xmlns="http://www.w3.org/2000/svg"><path d="M41.842 1H15.158C7.348 1 1 7.053 1 14.5 1 21.948 7.347 28 15.158 28h26.684C49.652 28 56 21.948 56 14.5 56 7.053 49.653 1 41.842 1Z" fill="#212529" stroke="#fff"/><path d="M15.667 6a8.946 8.946 0 0 0-8.959 8.958 8.946 8.946 0 0 0 8.959 8.959 8.946 8.946 0 0 0 8.958-8.959A8.946 8.946 0 0 0 15.667 6ZM40.04 22.985a7.998 7.998 0 0 1-.746-15.967.751.751 0 0 1 .675 1.195 4.884 4.884 0 0 0 6.833 6.832.753.753 0 0 1 1.194.677 8 8 0 0 1-7.957 7.263ZM37.928 8.84a6.497 6.497 0 1 0 8.249 8.249 6.387 6.387 0 0 1-8.249-8.25Z" fill="#fff"/></svg>