<svg width="538" height="384" fill="none" xmlns="http://www.w3.org/2000/svg"><path d="m-218.248-290.613.016-.001.014-.002c36.111-4.724 73.244-5.922 111.043-3.582-6.967 40.321-7.631 83.406-1.965 127.541C-94.442-52.699-41.213 61.29 38.973 150.488c80.188 89.201 180.847 146.39 280.061 159.088l.002.001c81.231 10.148 156.339-10.833 213.656-59.645l3.739 29.417.001.013.002.012c1.039 5.895.763 11.618-.799 16.621-1.561 5.002-4.354 9.112-8.105 11.942l-.011.008-.01.009c-67.63 59.99-157.871 85.171-255.39 71.283l-.01-.002c-116.77-14.441-235.449-81.443-330.08-186.382C-152.604 87.911-215.48-46.422-232.83-180.769v-.002c-4.011-30.506-4.992-60.566-2.925-89.599l.001-.013c.236-5.637 2.05-10.6 5.187-14.217 3.136-3.617 7.441-5.711 12.319-6.013Z" stroke="#B2DBBF"/></svg>