<svg width="202" height="955" fill="none" xmlns="http://www.w3.org/2000/svg"><path d="m380.233 9.145.009.013.009.012c21.685 29.258 40.786 61.124 57.118 95.292-38.621 13.517-76.594 33.884-112.407 60.293-92.436 68.251-166.164 170.186-205.124 283.624-38.96 113.442-39.996 229.208-2.854 322.08v.001c30.626 75.918 85.478 131.351 156 157.705l-23.889 17.569-.01.007-.01.008c-4.646 3.774-9.781 6.315-14.912 7.383-5.13 1.068-10.08.625-14.377-1.276l-.012-.006-.013-.004C134.458 921.914 68.578 855.3 33.301 763.33l-.004-.009c-44.153-109.06-43.304-245.344 2.387-379.058 45.692-133.717 132.51-253.975 241.473-334.455h.001c24.708-18.338 50.499-33.81 76.874-46.12l.012-.005c5.041-2.535 10.26-3.363 14.946-2.38 4.685.982 8.608 3.726 11.243 7.842Z" stroke="#B2DBBF"/></svg>