<svg width="295" height="734" fill="none" xmlns="http://www.w3.org/2000/svg"><path d="m20.144-13.871.019-.003.018-.004c42.518-9.487 86.63-14.883 131.913-16.137-3.988 48.792-.174 100.203 11.294 152.188 29.701 134.259 105.331 264.436 210.443 362.184 105.115 97.751 231.209 155.16 350.826 159.69h.002c97.887 3.413 185.153-29.608 248.251-93.888l7.584 34.591.003.016.005.015c1.867 6.91 2.149 13.756.823 19.881-1.325 6.125-4.213 11.317-8.377 15.088l-.012.011-.012.013c-74.19 78.723-179.046 118.378-296.751 112.249v-.001h-.012c-140.708-4.73-289.309-71.899-413.306-186.851C138.856 430.217 49.561 276.837 14.525 118.575v-.001C6.483 82.644 2.101 46.924 1.461 12.102v-.016C1.14 5.347 2.77-.757 6.12-5.398c3.348-4.64 8.25-7.593 14.024-8.473Z" stroke="#EE9C51" stroke-width="1.263"/></svg>