<svg width="26" height="25" fill="none" xmlns="http://www.w3.org/2000/svg"><path d="M12.381 11.714 2.476 5.356v12.715H13.62v2.543H2.476c-.68 0-1.264-.25-1.749-.747A2.482 2.482 0 0 1 0 18.07V2.813c0-.699.242-1.298.727-1.796a2.354 2.354 0 0 1 1.75-.746h19.809c.68 0 1.264.249 1.748.746.485.498.728 1.097.728 1.796v8.9h-2.476V5.357l-9.905 6.358Zm0-2.543 9.905-6.358H2.476l9.905 6.358Zm8.667 15.257-1.734-1.78 1.95-2.034h-5.169V18.07h5.17l-1.982-2.034 1.765-1.78L26 19.342l-4.952 5.086ZM2.476 5.356v13.986-7.628.095-8.996 2.543Z" fill="#EE9C51"/></svg>