<svg width="136" height="37" fill="none" xmlns="http://www.w3.org/2000/svg"><path d="M128.268 25.887a4.27 4.27 0 1 1 4.124-4.267 4.002 4.002 0 0 1-.23 1.645 4 4 0 0 1-2.258 2.336 3.987 3.987 0 0 1-1.636.286Zm-11.627-13.259a2.09 2.09 0 1 0-2.091-2.09 1.962 1.962 0 0 0 .573 1.518 1.975 1.975 0 0 0 1.518.572Zm11.827 23.624c3.637 0 7.532-1.861 7.532-7.388V14.519h-2.663a.556.556 0 0 0-.634.515l-.201 1.46a5.764 5.764 0 0 0-4.782-2.405c-4.35 0-7.245 3.036-7.245 7.532 0 4.467 2.864 7.503 7.16 7.503 1.575 0 4.038-.83 4.868-2.52v2.174c0 3.179-2.062 4.296-4.038 4.296-2.119 0-3.608-.716-3.837-2.52h-3.122a.484.484 0 0 0-.515.634c.518 3.377 3.268 5.064 7.477 5.064Zm-13.604-7.387h3.522V14.52h-3.522v14.346Zm-10.224 0h3.551v-6.872c0-2.778 1.232-4.21 3.551-4.21a5.25 5.25 0 0 1 1.26.114v-3.494a5.534 5.534 0 0 0-.687-.057 4.472 4.472 0 0 0-4.095 2.205l-.2-1.518a.56.56 0 0 0-.635-.516h-2.748l.003 14.348Zm-9.88 0h3.552V17.841h4.441v-3.322h-4.441v-.635c0-1.575.802-2.491 2.175-2.491a3.555 3.555 0 0 1 2.148.744l1.117-2.205a.571.571 0 0 0-.2-.802 6.1 6.1 0 0 0-3.354-.946c-3.263 0-5.438 2.234-5.438 5.613v15.068Zm-10.309 0h3.551v-6.872c0-2.778 1.232-4.21 3.551-4.21a5.23 5.23 0 0 1 1.26.114v-3.494a5.546 5.546 0 0 0-.687-.057 4.474 4.474 0 0 0-4.095 2.205l-.2-1.518a.559.559 0 0 0-.635-.516h-2.748l.003 14.348ZM74.028 26.03a4.341 4.341 0 0 1 0-8.677c2.463 0 4.124 1.746 4.124 4.35a3.994 3.994 0 0 1-4.122 4.327h-.002Zm-.634 3.263c1.575 0 4.037-.83 4.868-2.52l.286 2.09h3.208V14.52h-2.663a.557.557 0 0 0-.635.515l-.2 1.46a5.768 5.768 0 0 0-4.782-2.405c-4.35 0-7.245 3.036-7.245 7.614.01 4.557 2.873 7.592 7.169 7.592l-.006-.002Zm-30.756-.43h3.75V14.09l6.96 9.364 7.044-9.335v14.746h3.752V8.563h-3.752a.97.97 0 0 0-.83.43l-6.1 8.448-5.982-8.448a.906.906 0 0 0-.83-.43h-4.009l-.003 20.3ZM17.644 4.983c1.54-.002 3.068.25 4.525.744a28.49 28.49 0 0 0-.602-4.553 1.006 1.006 0 0 0-.802-.83A13.962 13.962 0 0 0 17.615 0 17.654 17.654 0 0 0 .002 17.611 16.837 16.837 0 0 0 3.61 28.35a1.205 1.205 0 0 0 1.06.516h1.06a14.683 14.683 0 0 1-3.036-8.992 14.984 14.984 0 0 1 14.95-14.89Zm9.11-2.421c.476 2.066.76 4.171.848 6.29a14.836 14.836 0 0 1 1.87 20.014h1.06a1.205 1.205 0 0 0 1.06-.516A16.838 16.838 0 0 0 35.2 17.612a17.52 17.52 0 0 0-8.446-15.05Z" fill="#fff"/><path d="M27.6 8.85a34.361 34.361 0 0 0-.847-6.288v-.013c-.152-.09-.301-.172-.449-.253a18.05 18.05 0 0 0-.868-.463v.008A18.9 18.9 0 0 0 22.914.802c.62 2.287.93 4.647.916 7.016-.03 7.819-3.121 14.147-6.93 14.119-3.608 0-6.558-5.67-6.844-13.116a10.443 10.443 0 0 0-2.033 1.722 1.56 1.56 0 0 0-.43 1.087c0 8.992 4.325 18.1 9.995 18.127 5.529.029 10.022-8.59 10.051-19.214 0-.57-.013-1.135-.039-1.692Z" fill="#fff"/></svg>