<svg width="613" height="680" fill="none" xmlns="http://www.w3.org/2000/svg"><path d="M19.753 5.387h.015l.015-.003C55.893.66 93.026-.538 130.825 1.802c-6.966 40.32-7.631 83.406-1.965 127.541 14.698 113.958 67.928 227.947 148.114 317.145 80.188 89.201 180.847 146.39 280.061 159.088l.001.001c81.231 10.148 156.34-10.833 213.657-59.645l3.738 29.417.002.013.002.012c1.039 5.895.762 11.618-.799 16.621-1.561 5.002-4.355 9.112-8.106 11.942l-.01.008-.01.009c-67.631 59.99-157.872 85.171-255.391 71.283l-.009-.002c-116.77-14.441-235.449-81.443-330.08-186.382C85.397 383.911 22.52 249.578 5.17 115.231v-.002C1.16 84.723.18 54.663 2.246 25.63v-.013c.236-5.637 2.05-10.6 5.187-14.218 3.137-3.616 7.442-5.71 12.32-6.012Z" stroke="#B2DBBF"/></svg>