<svg width="613" height="680" viewBox="0 0 613 680" fill="none" xmlns="http://www.w3.org/2000/svg">
<path d="M19.7529 5.38707L19.768 5.38615L19.7828 5.38418C55.8935 0.659768 93.0265 -0.538147 130.825 1.80176C123.859 42.1228 123.194 85.2081 128.86 129.343C143.558 243.301 196.788 357.29 276.974 446.488C357.162 535.689 457.821 592.878 557.035 605.576L557.036 605.577C638.267 615.725 713.376 594.744 770.693 545.932L774.431 575.349L774.433 575.362L774.435 575.374C775.474 581.269 775.197 586.992 773.636 591.995C772.075 596.997 769.281 601.107 765.53 603.937L765.52 603.945L765.51 603.954C697.879 663.944 607.638 689.125 510.119 675.237L510.119 675.237L510.11 675.235C393.34 660.794 274.661 593.792 180.03 488.853C85.3969 383.911 22.5206 249.578 5.17057 115.231L5.17041 115.229C1.15969 84.7227 0.178963 54.6628 2.24598 25.6304L2.24653 25.6171C2.48232 19.9797 4.29631 15.0165 7.43339 11.3995C10.5698 7.78317 14.8746 5.68932 19.7529 5.38707Z" stroke="#B2DBBF"/>
</svg>
