<svg width="30" height="30" fill="none" xmlns="http://www.w3.org/2000/svg"><path d="M26.5 28.833 17.167 19.5a9.932 9.932 0 0 1-2.875 1.583 10.159 10.159 0 0 1-3.459.584c-3.027 0-5.59-1.049-7.687-3.146C1.049 16.424 0 13.86 0 10.833s1.049-5.59 3.146-7.687C5.243 1.049 7.806 0 10.833 0c3.028 0 5.59 1.049 7.688 3.146 2.097 2.097 3.146 4.66 3.146 7.687a10.16 10.16 0 0 1-.584 3.459 9.932 9.932 0 0 1-1.583 2.875l9.375 9.375c.306.305.458.68.458 1.125 0 .444-.166.833-.5 1.166-.305.306-.694.459-1.166.459-.473 0-.861-.153-1.167-.459Zm-15.667-10.5c2.084 0 3.854-.729 5.313-2.187 1.458-1.459 2.187-3.23 2.187-5.313 0-2.083-.729-3.854-2.187-5.312-1.459-1.458-3.23-2.188-5.313-2.188-2.083 0-3.854.73-5.312 2.188-1.458 1.458-2.188 3.229-2.188 5.312 0 2.084.73 3.854 2.188 5.313 1.458 1.458 3.229 2.187 5.312 2.187Z" fill="#035866"/></svg>