<svg width="57" height="29" viewBox="0 0 57 29" fill="none" xmlns="http://www.w3.org/2000/svg">
<path d="M41.8424 1H15.1576C7.34731 1 1 7.0525 1 14.5C1 21.9475 7.34731 28 15.1576 28H41.8424C49.6527 28 56 21.9475 56 14.5C56 7.0525 49.6527 1 41.8424 1Z" fill="#212529" stroke="white"/>
<path d="M15.6669 6C10.7099 6 6.7085 10.0014 6.7085 14.9584C6.7085 19.9153 10.7099 23.9167 15.6669 23.9167C20.6238 23.9167 24.6252 19.9153 24.6252 14.9584C24.6252 10.0014 20.6238 6 15.6669 6Z" fill="white"/>
<path d="M40.0392 22.9854C39.7927 22.9854 39.5424 22.9741 39.2952 22.9508C37.3062 22.7718 35.4561 21.8552 34.1087 20.3812C32.7613 18.9072 32.014 16.9825 32.0137 14.9855C32.0134 12.9885 32.7602 11.0636 34.1072 9.5892C35.4542 8.11486 37.304 7.19773 39.293 7.01812C39.4376 7.00417 39.5831 7.03244 39.712 7.0995C39.8408 7.16655 39.9475 7.26952 40.0191 7.39595C40.0906 7.52237 40.124 7.66682 40.1152 7.81183C40.1063 7.95683 40.0557 8.09616 39.9693 8.21296C39.2725 9.15375 38.9368 10.3135 39.0233 11.481C39.1098 12.6486 39.6128 13.7462 40.4406 14.574C41.2684 15.4018 42.3661 15.9048 43.5336 15.9913C44.7011 16.0778 45.8609 15.7421 46.8017 15.0453C46.9185 14.959 47.0578 14.9083 47.2028 14.8994C47.3478 14.8906 47.4923 14.924 47.6187 14.9956C47.7451 15.0671 47.8481 15.1738 47.9151 15.3027C47.9822 15.4315 48.0104 15.5771 47.9965 15.7217C47.8129 17.7059 46.8955 19.5502 45.4237 20.8937C43.952 22.2371 42.0319 22.983 40.0392 22.9854ZM37.929 8.83893C36.5223 9.32003 35.3232 10.2691 34.5318 11.5276C33.7403 12.7862 33.4045 14.2781 33.5804 15.7544C33.7563 17.2306 34.4332 18.6019 35.4981 19.6393C36.5631 20.6767 37.9516 21.3175 39.432 21.4546C39.6334 21.4734 39.837 21.4824 40.0377 21.4824C41.3913 21.4802 42.7104 21.0556 43.8111 20.2679C44.9119 19.4801 45.7393 18.3684 46.1779 17.0878C45.0256 17.5289 43.7702 17.6269 42.5635 17.3698C41.3567 17.1127 40.2502 16.5116 39.3778 15.6391C38.5053 14.7666 37.9042 13.6602 37.6471 12.4534C37.39 11.2466 37.4879 9.99124 37.929 8.83893Z" fill="white"/>
</svg>
