<svg width="202" height="955" viewBox="0 0 202 955" fill="none" xmlns="http://www.w3.org/2000/svg">
<path d="M380.233 9.14507L380.242 9.15783L380.251 9.16978C401.936 38.4281 421.037 70.2943 437.369 104.462C398.748 117.979 360.775 138.346 324.962 164.755C232.526 233.006 158.798 334.941 119.838 448.379C80.8775 561.821 79.8424 677.587 116.984 770.459L116.984 770.46C147.61 846.378 202.462 901.811 272.984 928.165L249.095 945.734L249.085 945.741L249.075 945.749C244.429 949.523 239.294 952.064 234.163 953.132C229.033 954.2 224.083 953.757 219.786 951.856L219.774 951.85L219.761 951.846C134.458 921.914 68.5784 855.3 33.301 763.33L33.3011 763.33L33.2975 763.321C-10.8565 654.261 -10.0075 517.977 35.6839 384.263C81.3764 250.546 168.194 130.288 277.157 49.8079L277.158 49.8072C301.866 31.4702 327.657 15.9981 354.032 3.68892L354.044 3.68297C359.085 1.14809 364.304 0.320193 368.99 1.30294C373.675 2.28542 377.598 5.02913 380.233 9.14507Z" stroke="#B2DBBF"/>
</svg>
