<svg width="295" height="734" viewBox="0 0 295 734" fill="none" xmlns="http://www.w3.org/2000/svg">
<path d="M20.1438 -13.8713L20.1627 -13.8742L20.1811 -13.8783C62.6989 -23.3652 106.811 -28.7613 152.094 -30.015C148.106 18.7769 151.92 70.1877 163.388 122.173C193.089 256.432 268.719 386.609 373.831 484.357C478.946 582.108 605.04 639.517 724.657 644.047L724.659 644.047C822.546 647.46 909.812 614.439 972.91 550.159L980.494 584.75L980.497 584.766L980.502 584.781C982.369 591.691 982.651 598.537 981.325 604.662C980 610.787 977.112 615.979 972.948 619.75L972.936 619.761L972.924 619.774C898.734 698.497 793.878 738.152 676.173 732.023L676.173 732.022L676.161 732.022C535.453 727.292 386.852 660.123 262.855 545.171C138.856 430.217 49.5615 276.837 14.5244 118.575L14.5241 118.574C6.48361 82.6445 2.10201 46.9241 1.46228 12.1024L1.46213 12.0941L1.46173 12.0858C1.14046 5.34705 2.77071 -0.756527 6.11966 -5.39812C9.46791 -10.0388 14.3692 -12.9908 20.1438 -13.8713Z" stroke="#EE9C51" stroke-width="1.2627"/>
</svg>
