<svg width="538" height="384" viewBox="0 0 538 384" fill="none" xmlns="http://www.w3.org/2000/svg">
<path d="M-218.248 -290.613L-218.232 -290.614L-218.218 -290.616C-182.107 -295.34 -144.974 -296.538 -107.175 -294.198C-114.142 -253.877 -114.806 -210.792 -109.14 -166.657C-94.4422 -52.6986 -41.213 61.2897 38.9731 150.488C119.161 239.689 219.82 296.878 319.034 309.576L319.036 309.577C400.267 319.725 475.375 298.744 532.692 249.932L536.431 279.349L536.432 279.362L536.434 279.374C537.473 285.269 537.197 290.992 535.635 295.995C534.074 300.997 531.281 305.107 527.53 307.937L527.519 307.945L527.509 307.954C459.879 367.944 369.638 393.125 272.119 379.237L272.119 379.237L272.109 379.235C155.339 364.794 36.6603 297.792 -57.9706 192.853C-152.604 87.9113 -215.48 -46.4224 -232.83 -180.769L-232.83 -180.771C-236.841 -211.277 -237.822 -241.337 -235.755 -270.37L-235.754 -270.383C-235.518 -276.02 -233.704 -280.983 -230.567 -284.6C-227.431 -288.217 -223.126 -290.311 -218.248 -290.613Z" stroke="#B2DBBF"/>
</svg>
