<svg width="26" height="25" viewBox="0 0 26 25" fill="none" xmlns="http://www.w3.org/2000/svg">
<path d="M12.381 11.7136L2.47619 5.35635V18.071H13.619V20.6139H2.47619C1.79524 20.6139 1.2123 20.3649 0.727381 19.8669C0.24246 19.3689 0 18.7703 0 18.071V2.81343C0 2.11413 0.24246 1.51548 0.727381 1.01749C1.2123 0.519502 1.79524 0.270508 2.47619 0.270508H22.2857C22.9667 0.270508 23.5496 0.519502 24.0345 1.01749C24.5194 1.51548 24.7619 2.11413 24.7619 2.81343V11.7136H22.2857V5.35635L12.381 11.7136ZM12.381 9.17073L22.2857 2.81343H2.47619L12.381 9.17073ZM21.0476 24.4283L19.3143 22.6482L21.2643 20.6139H16.0952V18.071H21.2643L19.2833 16.0366L21.0476 14.2566L26 19.3424L21.0476 24.4283ZM2.47619 5.35635V19.3424V11.7136V11.809V2.81343V5.35635Z" fill="#EE9C51"/>
</svg>
