<svg width="136" height="37" viewBox="0 0 136 37" fill="none" xmlns="http://www.w3.org/2000/svg">
<path d="M128.268 25.8871C127.418 25.9162 126.578 25.6907 125.857 25.2394C125.136 24.7881 124.566 24.1317 124.22 23.3543C123.875 22.577 123.769 21.7141 123.917 20.8763C124.065 20.0386 124.46 19.2643 125.052 18.6526C125.643 18.0408 126.403 17.6196 127.235 17.443C128.068 17.2664 128.934 17.3424 129.722 17.6612C130.511 17.9801 131.186 18.5273 131.662 19.2326C132.138 19.938 132.392 20.7693 132.392 21.6201C132.431 22.1784 132.353 22.7388 132.162 23.2648C131.97 23.7908 131.67 24.2707 131.281 24.6732C130.892 25.0757 130.423 25.3918 129.904 25.6009C129.385 25.8101 128.827 25.9076 128.268 25.8871ZM116.641 12.6281C117.055 12.628 117.458 12.5052 117.802 12.2755C118.146 12.0457 118.413 11.7192 118.571 11.3373C118.729 10.9553 118.771 10.5351 118.69 10.1297C118.609 9.72438 118.41 9.35208 118.118 9.05987C117.825 8.76766 117.453 8.56872 117.048 8.48815C116.642 8.40757 116.222 8.44898 115.84 8.60719C115.458 8.76541 115.132 9.03333 114.902 9.37702C114.673 9.7207 114.55 10.1247 114.55 10.5381C114.532 10.8172 114.574 11.097 114.673 11.3587C114.772 11.6204 114.925 11.8581 115.123 12.0559C115.321 12.2537 115.559 12.407 115.82 12.5057C116.082 12.6043 116.362 12.6461 116.641 12.6281ZM128.468 36.2522C132.105 36.2522 136 34.3905 136 28.8636V14.5188H133.337C133.261 14.5081 133.184 14.5133 133.11 14.5339C133.036 14.5545 132.967 14.59 132.908 14.6384C132.848 14.6868 132.799 14.747 132.764 14.8151C132.729 14.8833 132.708 14.9579 132.703 15.0345L132.502 16.4946C131.959 15.7371 131.24 15.1225 130.407 14.7036C129.574 14.2847 128.653 14.0738 127.72 14.0892C123.37 14.0892 120.475 17.1245 120.475 21.6209C120.475 26.0884 123.339 29.1237 127.635 29.1237C129.21 29.1237 131.673 28.2935 132.503 26.6032V28.7784C132.503 31.957 130.441 33.0736 128.465 33.0736C126.346 33.0736 124.857 32.3576 124.628 30.554H121.506C121.426 30.5446 121.343 30.5559 121.268 30.5866C121.193 30.6173 121.126 30.6666 121.075 30.7298C121.023 30.793 120.989 30.8682 120.974 30.9483C120.959 31.0285 120.965 31.111 120.991 31.1884C121.509 34.5645 124.259 36.2522 128.468 36.2522ZM114.864 28.8654H118.386V14.5188H114.864V28.8654ZM104.64 28.8654H108.191V21.9925C108.191 19.2146 109.423 17.7826 111.742 17.7826C112.165 17.7697 112.588 17.808 113.002 17.8967V14.4028C112.775 14.3695 112.545 14.3505 112.315 14.3457C111.496 14.3026 110.681 14.4855 109.959 14.8744C109.237 15.2633 108.635 15.8433 108.22 16.5508L108.02 15.0327C108.015 14.9561 107.994 14.8814 107.959 14.8133C107.924 14.7452 107.875 14.6851 107.815 14.6367C107.756 14.5883 107.687 14.5526 107.613 14.5321C107.539 14.5115 107.461 14.5063 107.385 14.517H104.637L104.64 28.8654ZM94.7609 28.8654H98.312V17.8405H102.753V14.5188H98.312V13.8843C98.312 12.3091 99.1142 11.3927 100.487 11.3927C101.265 11.399 102.02 11.6604 102.635 12.1369L103.752 9.9317C103.793 9.8664 103.821 9.79343 103.833 9.71712C103.846 9.6408 103.842 9.56276 103.824 9.48776C103.805 9.41277 103.771 9.34232 103.724 9.28076C103.678 9.2192 103.619 9.16781 103.552 9.12963C102.55 8.49508 101.384 8.16653 100.198 8.18428C96.9353 8.18428 94.76 10.4175 94.76 13.7973L94.7609 28.8654ZM84.4512 28.8654H88.0023V21.9925C88.0023 19.2146 89.234 17.7826 91.5534 17.7826C91.9764 17.7697 92.3994 17.808 92.8132 17.8967V14.4028C92.5856 14.3695 92.3561 14.3505 92.1262 14.3457C91.3071 14.3026 90.4919 14.4855 89.7697 14.8744C89.0475 15.2633 88.4461 15.8433 88.0313 16.5508L87.8309 15.0327C87.8258 14.9561 87.805 14.8814 87.7698 14.8133C87.7345 14.7452 87.6856 14.6851 87.626 14.6367C87.5665 14.5883 87.4976 14.5526 87.4237 14.5321C87.3498 14.5115 87.2725 14.5063 87.1965 14.517H84.4476L84.4512 28.8654ZM74.0281 26.0303C72.904 25.9905 71.8392 25.516 71.0581 24.7067C70.2769 23.8973 69.8403 22.8165 69.8403 21.6916C69.8403 20.5668 70.2769 19.4859 71.0581 18.6766C71.8392 17.8673 72.904 17.3928 74.0281 17.353C76.4907 17.353 78.1521 19.0995 78.1521 21.7034C78.1996 22.2662 78.1272 22.8326 77.9397 23.3654C77.7522 23.8981 77.4538 24.3851 77.0642 24.794C76.6746 25.2029 76.2028 25.5246 75.6797 25.7377C75.1567 25.9508 74.5944 26.0505 74.0299 26.0303H74.0281ZM73.3937 29.2932C74.969 29.2932 77.4315 28.463 78.2617 26.7736L78.5481 28.8636H81.7557V14.5188H79.0928C79.0168 14.5081 78.9395 14.5133 78.8656 14.5339C78.7917 14.5545 78.7229 14.59 78.6633 14.6384C78.6038 14.6868 78.5549 14.747 78.5196 14.8151C78.4843 14.8833 78.4635 14.9579 78.4584 15.0345L78.2581 16.4946C77.7148 15.7371 76.9959 15.1225 76.1631 14.7036C75.3302 14.2847 74.4083 14.0738 73.4762 14.0892C69.1257 14.0892 66.2308 17.1245 66.2308 21.7025C66.2408 26.2596 69.1039 29.295 73.4 29.295L73.3937 29.2932ZM42.6376 28.8636H46.3889V14.0901L53.3479 23.4545L60.3921 14.1191V28.8654H64.1435V8.56316H60.3921C60.2287 8.5591 60.067 8.59632 59.9219 8.67142C59.7767 8.74652 59.6529 8.85707 59.5618 8.99277L53.4621 17.4409L47.4802 8.99277C47.3939 8.85248 47.271 8.73837 47.1247 8.66268C46.9785 8.58699 46.8144 8.55258 46.65 8.56316H42.6412L42.6376 28.8636Z" fill="white"/>
<path d="M17.6443 4.98329C19.1831 4.98096 20.7118 5.23241 22.1688 5.72745C22.0911 4.19589 21.8898 2.67311 21.567 1.17395C21.5348 0.969915 21.4405 0.780702 21.297 0.632151C21.1535 0.483601 20.9676 0.382913 20.7648 0.343716C19.7311 0.110017 18.6742 -0.00525294 17.6144 0.000183674C12.947 0.0114324 8.47404 1.87055 5.17371 5.17088C1.87339 8.4712 0.0142943 12.9442 0.00304557 17.6115C-0.0709014 21.5002 1.20372 25.2945 3.61033 28.3499C3.72804 28.5194 3.88726 28.6558 4.07278 28.7461C4.25829 28.8364 4.46387 28.8776 4.66985 28.8657H5.72938C3.75011 26.287 2.68253 23.1244 2.69401 19.8737C2.71862 15.9218 4.30353 12.1396 7.10364 9.35069C9.90374 6.56179 13.6923 4.99206 17.6443 4.98329Z" fill="white"/>
<path d="M26.7544 2.56201C27.2303 4.62777 27.514 6.73311 27.6018 8.85115C30.3686 11.3438 32.0968 14.7857 32.4433 18.4935C32.7899 22.2013 31.7294 25.9039 29.4725 28.8661H30.5321C30.738 28.878 30.9436 28.8369 31.1291 28.7466C31.3146 28.6563 31.4739 28.5199 31.5916 28.3504C33.9985 25.2951 35.2735 21.5007 35.1998 17.612C35.2107 14.5878 34.4386 11.6123 32.9587 8.97496C31.4787 6.33764 29.3413 4.12837 26.7544 2.56201Z" fill="white"/>
<path d="M27.6004 8.85065C27.5125 6.73261 27.2288 4.62727 26.7529 2.56151V2.54879C26.6007 2.45815 26.452 2.37749 26.3043 2.29592C26.0197 2.13399 25.7303 1.97962 25.436 1.83279V1.84098C24.6213 1.43444 23.7783 1.08726 22.9136 0.802246C23.5349 3.08874 23.8432 5.44897 23.8299 7.81834C23.8009 15.6365 20.7085 21.9647 16.9 21.9366C13.2918 21.9366 10.3416 16.2665 10.0561 8.82078C9.30771 9.30564 8.6245 9.88434 8.02316 10.5428C7.74442 10.836 7.59039 11.2259 7.59355 11.6304C7.59355 20.6224 11.9178 29.7294 17.5879 29.7575C23.1166 29.7856 27.6103 21.1662 27.6393 10.5428C27.6387 9.97241 27.6257 9.40836 27.6004 8.85065Z" fill="white"/>
</svg>
