<svg width="17" height="18" viewBox="0 0 17 18" fill="none" xmlns="http://www.w3.org/2000/svg">
<path d="M10.3032 2C9.41321 2 8.54318 2.26392 7.80316 2.75839C7.06314 3.25285 6.48636 3.95566 6.14576 4.77792C5.80517 5.60019 5.71606 6.50499 5.88969 7.37791C6.06332 8.25082 6.49191 9.05264 7.12124 9.68198C7.75058 10.3113 8.5524 10.7399 9.42532 10.9135C10.2982 11.0872 11.203 10.9981 12.0253 10.6575C12.8476 10.3169 13.5504 9.74009 14.0448 9.00007C14.5393 8.26005 14.8032 7.39002 14.8032 6.5C14.8019 5.30693 14.3274 4.16311 13.4837 3.31948C12.6401 2.47585 11.4963 2.00132 10.3032 2ZM10.3032 0C11.5888 0 12.8455 0.381218 13.9144 1.09545C14.9833 1.80968 15.8165 2.82484 16.3084 4.01256C16.8004 5.20028 16.9291 6.50721 16.6783 7.76809C16.4275 9.02896 15.8085 10.1872 14.8994 11.0962C13.9904 12.0052 12.8322 12.6243 11.5713 12.8751C10.3104 13.1259 9.0035 12.9972 7.81578 12.5052C6.62806 12.0132 5.6129 11.1801 4.89867 10.1112C4.18444 9.04229 3.80322 7.78558 3.80322 6.5C3.80322 4.77609 4.48804 3.12279 5.70703 1.90381C6.92602 0.684819 8.57932 0 10.3032 0V0Z" fill="white"/>
<path d="M1.51019 17.207L0.0961914 15.793L6.09619 9.79297L7.51019 11.207L1.51019 17.207Z" fill="white"/>
</svg>
